<?xml version="1.0" encoding="UTF-8" standalone="no"?>
<svg width="69px" height="78px" viewBox="0 0 69 78" version="1.1" xmlns="http://www.w3.org/2000/svg" xmlns:xlink="http://www.w3.org/1999/xlink" xmlns:sketch="http://www.bohemiancoding.com/sketch/ns">
    <!-- Generator: Sketch 3.1 (8751) - http://www.bohemiancoding.com/sketch -->
    <title>avalanche</title>
    <desc>Created with Sketch.</desc>
    <defs></defs>
    <g id="Page-1" stroke="none" stroke-width="1" fill="none" fill-rule="evenodd" sketch:type="MSPage">
        <g id="avalanche" sketch:type="MSLayerGroup" transform="translate(0.157909, 0.410364)" fill="#356993">
            <path d="M28.3530041,38.7589713 L31.4013413,43.2609529 L37.077954,43.2609529 L39.6969805,38.7589713 L36.9376765,33.9648734 L31.2502733,33.9648734 L28.3530041,38.7589713 L28.3530041,38.7589713 Z M30.6907049,74.9644303 L30.6907049,64.7850652 L25.0033016,67.9836996 L22.1060325,66.3250343 L22.1060325,62.7387099 L30.5404076,57.944612 L30.5404076,51.2544561 L24.4213814,55.1868495 L24.4213814,48.0989839 L18.5721195,51.4702675 L18.5721195,61.0800445 L15.3727143,63.0624271 L12.6689047,61.2735041 L12.6689047,54.8330729 L3.79134527,59.8414407 L0,58.2459773 L0,54.1840969 L9.31766071,49.0901752 L3.48997996,46.1605343 L3.48997996,42.4439523 L6.79729091,40.6334482 L15.156132,45.5554914 L20.9622316,42.2057889 L20.8219542,42.098654 L14.8863677,38.6942278 L20.649305,35.1179233 L14.8647865,31.7682208 L6.50671616,36.6794735 L3.37128364,35.1179233 L3.37128364,31.4121319 L9.02785672,28.2343078 L0,23.3323042 L0,19.2711945 L3.46839881,17.483813 L12.3659979,22.6216678 L12.3659979,16.0725601 L15.0482263,14.2628266 L18.3347268,16.1588847 L18.3131457,25.9613504 L24.2911237,29.3757964 L24.2703133,22.4497893 L30.5396369,25.8218437 L30.5396369,19.1316878 L22.1052617,14.3275701 L22.1052617,10.7728467 L25.0025309,9.09260016 L30.6899342,12.2920054 L30.6899342,2.13345064 L33.944063,0 L37.2282513,2.13345064 L37.2282513,12.2920054 L43.1214462,9.02785672 L46.0850003,10.9886582 L46.0850003,14.1880634 L37.3585089,19.1316878 L37.3585089,25.8218437 L43.3272379,22.1807957 L43.3272379,29.4628917 L49.4770944,26.1116477 L49.4770944,15.6309173 L52.4398777,14.2520361 L55.5521876,15.6309173 L55.5521876,22.3318638 L64.7079897,17.3866978 L67.9089364,19.3367087 L67.9089364,23.128054 L58.9674042,28.2127267 L64.5584631,31.3466177 L64.5584631,34.9668553 L61.6604232,36.5723385 L53.0757508,31.4984565 L47.1393936,35.2689913 L52.8807497,38.8468374 L46.9667444,42.2504928 L53.0757508,45.4491272 L61.6604232,40.6542585 L64.4181857,42.6042694 L64.4181857,46.0626484 L59.0321477,49.0894044 L67.6075711,54.1840969 L67.6075711,58.1827754 L63.9773136,59.8414407 L55.5521876,55.0465721 L55.5521876,61.3914296 L52.5254315,63.0824667 L49.563419,61.3914296 L49.563419,51.7600715 L43.3264671,48.2061189 L43.3264671,54.8962748 L37.3577382,51.2544561 L37.3577382,57.944612 L45.7928841,62.7387099 L45.7928841,66.5308259 L42.8825121,67.9844704 L37.2274805,64.7858359 L37.2274805,74.9652011 L33.944063,77.075529 L30.6907049,74.9644303 L30.6907049,74.9644303 Z" id="path5156" sketch:type="MSShapeGroup"></path>
        </g>
    </g>
</svg>