<?xml version="1.0" encoding="UTF-8" standalone="no"?>
<svg width="72px" height="48px" viewBox="0 0 72 48" version="1.1" xmlns="http://www.w3.org/2000/svg" xmlns:xlink="http://www.w3.org/1999/xlink" xmlns:sketch="http://www.bohemiancoding.com/sketch/ns">
    <!-- Generator: Sketch 3.1 (8751) - http://www.bohemiancoding.com/sketch -->
    <title>education</title>
    <desc>Created with Sketch.</desc>
    <defs></defs>
    <g id="Page-1" stroke="none" stroke-width="1" fill="none" fill-rule="evenodd" sketch:type="MSPage">
        <path d="M55.4375661,22.1249739 L37.5000447,27.7812307 C37.0000441,27.9374809 36.5000435,27.9999809 36.0000429,27.9999809 C35.5000423,27.9999809 35.0000417,27.9374809 34.5000411,27.7812307 L16.5625197,22.1249739 L16.0000191,31.9999857 C15.7500188,36.4062409 24.9687798,39.9999952 36.0000429,39.9999952 C47.0313061,39.9999952 56.2500671,36.4062409 56.0000668,31.9999857 L55.4375661,22.1249739 Z M72.0000858,11.9999619 C72.0000858,11.5624613 71.7188355,11.1874609 71.312585,11.0312107 L36.3125433,0.0311975852 C36.1875431,-5.24520874e-05 36.093793,-5.24520874e-05 36.0000429,-5.24520874e-05 C35.9062928,-5.24520874e-05 35.8125427,-5.24520874e-05 35.6875425,0.0311975852 L0.68750082,11.0312107 C0.281250335,11.1874609 0,11.5624613 0,11.9999619 C0,12.4374624 0.281250335,12.8124628 0.68750082,12.968713 L11.0937632,16.2187169 C9.15626092,18.9374701 8.2187598,22.8749748 8.03125957,26.5312292 C6.84375816,27.21873 6.00000715,28.4999815 6.00000715,29.9999833 C6.00000715,31.406235 6.71875801,32.6249864 7.81250931,33.3437373 L6.00000715,46.8750034 C5.96875712,47.1562538 6.06250723,47.4375041 6.25000745,47.6562544 C6.43750767,47.8750046 6.71875801,48.0000048 7.00000834,48.0000048 L13.0000155,48.0000048 C13.2812658,48.0000048 13.5625162,47.8750046 13.7500164,47.6562544 C13.9375166,47.4375041 14.0312667,47.1562538 14.0000167,46.8750034 L12.1875145,33.3437373 C13.2812658,32.6249864 14.0000167,31.406235 14.0000167,29.9999833 C14.0000167,28.5312316 13.2187658,27.2812301 12.0312643,26.5937293 C12.2812646,22.3749742 13.5312661,18.9374701 15.3125183,17.5312184 L35.6875425,23.9687261 C35.8125427,23.9999762 35.9062928,23.9999762 36.0000429,23.9999762 C36.093793,23.9999762 36.1875431,23.9999762 36.3125433,23.9687261 L71.312585,12.968713 C71.7188355,12.8124628 72.0000858,12.4374624 72.0000858,11.9999619 L72.0000858,11.9999619 Z" id="Type-something" fill="#356993" sketch:type="MSShapeGroup"></path>
    </g>
</svg>