<?xml version="1.0" encoding="UTF-8" standalone="no"?>
<svg width="40px" height="65px" viewBox="0 0 40 65" version="1.1" xmlns="http://www.w3.org/2000/svg" xmlns:xlink="http://www.w3.org/1999/xlink" xmlns:sketch="http://www.bohemiancoding.com/sketch/ns">
    <!-- Generator: Sketch 3.1 (8751) - http://www.bohemiancoding.com/sketch -->
    <title>gsar</title>
    <desc>Created with Sketch.</desc>
    <defs></defs>
    <g id="Page-1" stroke="none" stroke-width="1" fill="none" fill-rule="evenodd" sketch:type="MSPage">
        <path d="M33.1696,5.37728 C33.1696,8.26112 30.83488,10.60096 27.9472,10.60096 C25.06336,10.60096 22.72736,8.2624 22.72736,5.37728 C22.72736,2.49344 25.06336,0.15488 27.9472,0.15488 C30.83488,0.15488 33.1696,2.49344 33.1696,5.37728 Z M15.67712,9.2992 C15.70912,6.51008 13.47168,4.22272 10.68,4.19072 C8.216,4.16256 6.14624,5.90336 5.67264,8.23296 L0.55136,28.25728 C0.48992,28.48768 0.4656,28.71808 0.45664,28.94592 C0.4464,29.07264 0.43488,29.19808 0.4336,29.32352 C0.40416,32.11648 2.6416,34.40384 5.43328,34.43712 C7.5184,34.4576 9.5664,33.05984 10.10656,31.42016 C10.23584,31.06432 15.4992,10.59456 15.51328,10.51904 C15.61312,10.12608 15.67328,9.7216 15.67712,9.2992 Z M39,27.35872 L30.48416,24.32512 L26.66336,13.8368 C25.71488,12.00384 24.18784,10.72896 22.38816,10.39744 C18.16544,9.60896 16.69088,14.42944 16.69088,14.42944 L13.5472,27.63904 L22.4688,22.43584 L21.65856,20.6848 C21.48192,20.30336 21.64832,19.85152 22.02976,19.67872 C22.40864,19.49952 22.86048,19.66592 23.03712,20.04864 L24.10208,22.34496 C24.10336,22.35136 24.10848,22.3552 24.11104,22.35776 C24.12,22.37056 24.11872,22.38208 24.12384,22.39488 L26.17952,26.82752 L26.3856,27.24736 C26.50592,27.48416 26.94112,27.92832 27.34432,28.09344 L35.6144,31.24864 L30.33312,40.32896 L23.40832,33.82656 L24.79456,27.45856 L23.11008,23.8208 L13.05952,29.6832 L9.1696,46.01088 L0.93792,58.89024 C0.63328,59.31904 0.47968,59.82976 0.47968,60.44032 C0.35808,61.472 0.63328,62.36672 1.30016,63.13216 C1.96704,63.88992 2.8208,64.32896 3.85248,64.45312 C5.37184,64.57088 6.5264,63.96288 7.31488,62.62656 L16.09696,48.8448 C16.27872,48.47616 16.52064,47.96416 16.82784,47.28704 L18.57376,39.93216 L26.69024,46.58944 L17.09536,63.08224 C16.83168,63.53536 16.98656,64.11776 17.43968,64.38272 C17.59072,64.47104 17.75456,64.51328 17.91712,64.51328 C18.24352,64.51328 18.56224,64.34176 18.73888,64.03968 L26.936,49.94688 L26.92448,61.11872 C27.29184,62.88256 28.41568,63.85536 30.29984,64.03968 C31.33152,64.09984 32.22752,63.79776 32.98784,63.12832 C33.7456,62.45376 34.1552,61.63584 34.21536,60.66688 L34.21536,59.84384 L34.14624,45.90848 C34.14624,44.80768 33.89152,43.70944 33.19264,43.01184 L31.75904,41.66016 L37.47296,31.83104 C38.99104,31.92192 40.0816,31.05792 40.30176,29.55904 C40.44896,28.5696 39.78848,27.6544 39,27.35872 Z" id="Shape" fill="#356993" sketch:type="MSShapeGroup"></path>
    </g>
</svg>