<?xml version="1.0" encoding="UTF-8" standalone="no"?>
<svg width="46px" height="77px" viewBox="0 0 46 77" version="1.1" xmlns="http://www.w3.org/2000/svg" xmlns:xlink="http://www.w3.org/1999/xlink" xmlns:sketch="http://www.bohemiancoding.com/sketch/ns">
    <!-- Generator: Sketch 3.1 (8751) - http://www.bohemiancoding.com/sketch -->
    <title>high-angle</title>
    <desc>Created with Sketch.</desc>
    <defs></defs>
    <g id="Page-1" stroke="none" stroke-width="1" fill="none" fill-rule="evenodd" sketch:type="MSPage">
        <path d="M12.3812626,45.4467879 C10.4170108,47.1565945 7.81016357,49.4222908 5.20412663,51.6871768 C1.90930505,54.5509002 2.72207092,57.8060154 3.75119621,61.473591 C4.99587057,65.9036917 5.53069158,70.5436692 6.21461421,75.1171992 C6.32644042,75.8627073 5.62063875,76.7338172 5.33459054,77.4501533 C3.65638703,70.6287543 1.79099616,63.9880601 0.517149743,57.2379706 C0.186533116,55.481975 1.19296902,52.871076 2.49193582,51.5453682 C4.75520111,49.2367241 4.65634026,47.215749 3.43921728,44.6348324 C2.54460759,42.7354075 1.59003311,40.7338803 1.35665667,38.6950778 C1.12246989,36.66762 1.28696787,34.3370969 2.08514772,32.4879127 C6.32725076,22.6634127 13.6332299,18.2195363 24.5127859,20.1035649 C27.1593396,20.5605938 29.9533742,20.1708227 32.8778728,20.1708227 C34.1979083,13.1614261 35.4417723,6.5693519 36.6840156,-0.0251532623 C37.1426652,-0.00651556028 37.606987,0.0129324766 38.0656366,0.029139174 C38.0656366,1.56796509 38.2212209,3.12461837 38.0356542,4.63994458 C37.2990598,10.7288008 36.5073626,16.8136053 35.5973566,22.8797722 C35.4474446,23.871622 34.8210558,25.0085219 34.05691,25.6567898 C30.896604,28.3414292 27.5175076,30.7691924 24.4155457,33.514607 C23.7210887,34.1296511 23.4682642,35.7316832 23.7105544,36.7048954 C23.8321046,37.1935273 25.8158044,37.8288298 26.4640723,37.4811962 C34.8210558,32.9838376 39.69522,39.6245319 45.304358,43.4590365 C46.2605531,44.1073044 46.045004,46.4742925 46.374,48.0487732 C44.6552797,48.3518384 42.0152087,49.5179103 41.3620788,48.8234533 C34.9952778,42.0377091 27.9064683,43.8455662 20.4214051,46.1404346 C18.3040001,46.7951852 15.6785151,45.7838872 12.3812626,45.4467879 L12.3812626,45.4467879 Z M9.70148515,32.1953818 C4.68794332,37.1052008 8.44222477,40.2711791 9.72012285,44.2507337 C14.8430599,39.9357005 9.89110351,36.7219124 9.70148515,32.1953818 L9.70148515,32.1953818 Z M22.294089,32.273174 C24.6075951,30.0642011 26.2752642,28.4735138 28.5474432,26.3018163 L20.5907651,26.3018163 C21.1588099,28.2984814 21.6207007,29.9175305 22.294089,32.273174 L22.294089,32.273174 Z M14.7458197,3.6829391 C18.6532545,3.6132503 21.8289568,6.79057332 21.8354395,10.7758002 C21.8435428,14.731855 18.6200307,17.9513155 14.7336647,17.8670407 C11.0093656,17.7851968 7.97547188,14.7529238 7.87580069,11.0116077 C7.77045716,7.05798383 10.869988,3.7526279 14.7458197,3.6829391 L14.7458197,3.6829391 Z M19.9506006,49.2035004 C28.6333387,45.480822 30.6445899,46.2976395 33.8065165,54.6189683 C34.5495936,56.5726857 35.821009,58.5012827 35.9060942,60.4801204 C35.973352,62.1818237 34.6914022,63.9337676 34.0066692,65.6597809 C32.5075497,64.7927226 30.4249891,64.283022 29.6373436,62.9905379 C28.1552411,60.5522402 27.8456932,57.3724862 26.2541955,55.0443941 C24.6967319,52.7665428 22.1466081,51.1742348 19.9506006,49.2035004 L19.9506006,49.2035004 Z" id="Shape" fill="#356993" sketch:type="MSShapeGroup"></path>
    </g>
</svg>