<?xml version="1.0" encoding="UTF-8" standalone="no"?>
<svg width="100px" height="42px" viewBox="0 0 100 42" version="1.1" xmlns="http://www.w3.org/2000/svg" xmlns:xlink="http://www.w3.org/1999/xlink" xmlns:sketch="http://www.bohemiancoding.com/sketch/ns">
    <!-- Generator: Sketch 3.1 (8751) - http://www.bohemiancoding.com/sketch -->
    <title>swifwater</title>
    <desc>Created with Sketch.</desc>
    <defs></defs>
    <g id="Page-1" stroke="none" stroke-width="1" fill="none" fill-rule="evenodd" sketch:type="MSPage">
        <path d="M67.856,37.588 C66.128,40.036 63.372,41.637 60.272,41.637 C56.886,41.637 53.923,39.762 52.242,36.913 L52.328,36.879 C50.64,39.682 47.695,41.535 44.343,41.535 C40.946,41.535 37.966,39.636 36.29,36.764 L36.325,36.742 C34.649,39.624 31.663,41.535 28.249,41.535 C25.029,41.535 22.175,39.83 20.465,37.199 L20.488,37.084 C18.806,39.876 15.855,41.729 12.498,41.729 C8.203,41.729 4.571,38.698 3.41,34.523 L37.624,20.201 L31.562,12.354 L0,19.675 L1.567,13.819 L34.866,0 L67.856,37.588 Z M71.002,8.545 C65.008,8.545 60.147,13.406 60.147,19.389 C60.147,25.395 65.008,30.268 71.002,30.268 C77.008,30.268 81.869,25.395 81.869,19.389 C81.869,13.406 77.008,8.545 71.002,8.545 Z M100,36.467 C100,36.467 93.938,39.762 85.633,32.441 C85.633,32.441 82.967,40.86 71.414,37.394 C71.414,37.394 77.225,45.092 85.633,38.915 C85.633,38.916 96.076,43.206 100,36.467 Z" id="Shape" fill="#356993" sketch:type="MSShapeGroup"></path>
    </g>
</svg>