<?xml version="1.0" encoding="UTF-8" standalone="no"?>
<svg width="58px" height="68px" viewBox="0 0 58 68" version="1.1" xmlns="http://www.w3.org/2000/svg" xmlns:xlink="http://www.w3.org/1999/xlink" xmlns:sketch="http://www.bohemiancoding.com/sketch/ns">
    <!-- Generator: Sketch 3.1 (8751) - http://www.bohemiancoding.com/sketch -->
    <title>tracking</title>
    <desc>Created with Sketch.</desc>
    <defs></defs>
    <g id="Page-1" stroke="none" stroke-width="1" fill="none" fill-rule="evenodd" sketch:type="MSPage">
        <g id="tracking" sketch:type="MSLayerGroup" fill="#356993">
            <path d="M28.5179457,37.0733295 C21.5040726,36.5338008 11.2530272,48.7117344 11.2530272,48.7117344 C1.07905741,57.8837223 5.00990939,63.3560849 7.55340185,66.8244837 C10.0198188,70.1387314 20.5020907,64.974671 28.6720968,64.7434444 C36.8421029,64.4351423 42.545692,68.0576921 48.4805078,65.7454263 C54.4153235,63.4331604 52.4884353,55.8797586 49.7137162,51.1010758 C47.0160727,46.322393 35.4547434,37.6128582 28.5179457,37.0733295 Z M18.5752025,33.4507796 C20.7333173,31.0614382 19.0376557,23.6621874 19.0376557,23.6621874 C18.498127,20.8874684 17.1107674,18.652278 15.7234079,18.3439759 C14.3360484,18.0356738 12.2550091,18.1898249 10.4822719,22.8143566 C9.17198796,26.1286043 9.86566772,30.2906829 10.8676496,32.6029488 C12.1008581,35.5318189 16.3400122,35.840121 18.5752025,33.4507796 Z M45.7828643,31.6009669 C46.7848461,29.288701 47.4014504,25.0495469 46.1682419,21.8123747 C44.3955047,17.187843 42.3144654,17.0336919 40.9271059,17.341994 C39.5397464,17.6502962 38.1523869,19.808411 37.6128582,22.6602055 C37.6128582,22.6602055 35.9171965,30.0594563 38.0753113,32.4487977 C40.2334262,34.8381391 44.6267313,34.4527615 45.7828643,31.6009669 Z M14.567275,11.7154804 C14.567275,9.78859219 14.1818973,8.24708161 15.0297282,5.08698492 C15.0297282,5.08698492 11.0988762,9.0178369 12.1008581,12.0237825 C13.0257644,15.0297282 14.567275,13.7194442 14.567275,11.7154804 Z M4.62453174,22.428979 C4.54745621,20.5020907 4.16207857,18.9605801 4.93283386,15.8004835 C4.93283386,15.8004835 1.15613294,19.8854865 2.15811481,22.8143566 C3.16009669,25.7432267 4.70160727,24.3558672 4.62453174,22.428979 Z M44.3955047,11.0988762 C45.6287132,8.24708161 42.2373899,3.85377645 42.2373899,3.85377645 C42.6998431,7.09094867 42.2373899,8.55538372 42.0061633,10.4822719 C41.6978612,12.4862357 43.1622963,13.9506708 44.3955047,11.0988762 Z M56.3422117,20.1167131 C57.4983447,17.4961451 54.338248,13.5652931 54.338248,13.5652931 C54.8007011,16.4941632 54.338248,17.8044472 54.1070214,19.5771844 C53.9528703,21.4269971 55.1860788,22.7372811 56.3422117,20.1167131 Z M29.6740787,6.85972208 C29.3657766,4.85575833 29.0574744,3.31424775 29.13455,-0.077075529 C29.13455,-0.077075529 26.3598309,4.54745621 27.2076618,7.47632632 C27.978417,10.636423 29.9053053,8.86368584 29.6740787,6.85972208 Z M9.40321454,44.2413537 C10.9447251,41.7749367 8.17000608,35.6088944 8.17000608,35.6088944 C7.1680242,33.219553 5.54943809,31.6009669 4.2391541,31.6009669 C2.9288701,31.6009669 1.07905741,32.0634201 0.231226587,36.3796497 C-0.385377645,39.4626709 1.00198188,43.0081452 2.31226587,44.9350334 C3.93085198,47.1702238 7.86170396,46.7077706 9.40321454,44.2413537 Z M32.2946467,27.4388883 C34.6839881,25.1266225 32.9112509,17.7273717 32.9112509,17.7273717 C32.3717222,14.9526526 30.9072871,12.7174623 29.4428521,12.4091602 C27.978417,12.1008581 25.7432267,12.1779336 23.8163385,16.7253898 C22.428979,19.962562 23.1226587,24.1246406 24.1246406,26.513982 C25.3578491,29.288701 29.9053053,29.7511542 32.2946467,27.4388883 Z M57.7295713,33.2966285 C57.1900425,28.3637947 55.1090033,27.5930394 53.6445682,27.5159639 C52.1801332,27.3618128 50.1761694,29.13455 48.9429609,31.6780424 C48.9429609,31.6780424 45.2433355,38.3065379 46.8619217,41.235408 C48.4805078,44.1642781 52.8738129,45.0891845 54.8007011,42.6998431 C56.3422117,40.6958793 58.1149489,36.8421029 57.7295713,33.2966285 Z" id="Shape" sketch:type="MSShapeGroup"></path>
        </g>
    </g>
</svg>